Naruto Shippuden Season 3 English Dubbed

General
Format                         : MPEG-4
Format profile                 : Base Media
Codec ID                       : isom
Duration                       : ~20mn 35s
Overall bit rate mode          : Variable
Overall bit rate               : ~484 Kbps
Tagged date                    : UTC 2011-01-20 12:03:03
Writing application            : Lavf52.33.0

Video
ID                             : 1
Format                         : AVC
Format/Info                    : Advanced Video Codec
Format profile                 : Main@L3.0
Format settings, CABAC         : Yes
Format settings, ReFrames      : 3 frames
Codec ID                       : avc1
Codec ID/Info                  : Advanced Video Coding
Bit rate                       : 352 Kbps
Width                          : ~480 pixels
Height                         : ~272 pixels
Display aspect ratio           : 16:9
Original display aspect ratio  : 16:9
Frame rate mode                : Constant
Frame rate                     : 23.976 fps
Color space                    : YUV
Chroma subsampling             : 4:2:0
Bit depth                      : 8 bits
Scan type                      : Progressive
Bits/(Pixel*Frame)             : 0.112
Stream size                    : 51.8 MiB (73%)

Audio
ID                             : 2
Format                         : AAC
Format/Info                    : Advanced Audio Codec
Format profile                 : LC
Codec ID                       : 40
Duration                       : ~20mn 35s
Bit rate mode                  : Variable
Bit rate                       : 128 Kbps
Channel(s)                     : 2 channels
Channel positions              : Front: L R
Sampling rate                  : ~48.0 KHz
Compression mode               : Lossy
Stream size                    : 18.9 MiB (26%)

